<?xml version="1.0" encoding="utf-8"?>
<!-- Generator: Adobe Illustrator 23.0.3, SVG Export Plug-In . SVG Version: 6.00 Build 0)  -->
<svg version="1.1" id="spot" xmlns="http://www.w3.org/2000/svg" xmlns:xlink="http://www.w3.org/1999/xlink" x="0px" y="0px"
	 viewBox="0 0 500 500" style="enable-background:new 0 0 500 500;" xml:space="preserve">
<style type="text/css">
	.st0{fill:none;stroke:#040000;stroke-width:20;stroke-linecap:round;stroke-miterlimit:10;}
</style>
<path class="st0" d="M141.14,94.73c-15.68,21.27-24.91,47.33-24.91,75.48c0,18.52,4,36.13,11.2,52.07
	c1.79,5.29,4.21,10.47,7.31,15.43l26.24,41.94l22.03,35.2l15.44,24.67l14.14,22.6l29.62,47.33c3.84,6.13,11.92,6.13,15.76,0
	l81.22-129.8l26.24-41.94c3.39-5.41,5.96-11.08,7.79-16.88c6.79-15.56,10.55-32.67,10.55-50.63c0-71.71-59.89-129.84-133.77-129.84
	c-22.76,0-44.19,5.52-62.96,15.25"/>
<path class="st0" d="M238.99,251.33c-26.21-3.49-50.35-19.3-63.43-44.56c-21.29-41.11-5.23-91.7,35.88-113s91.7-5.23,113,35.88
	c21.29,41.11,5.23,91.7-35.88,113"/>
<path class="st0" d="M338.2,380.26c94.04,10.68,130.77,36.05,82.07,56.66c-48.72,20.61-164.44,28.67-258.48,17.99
	c-94.04-10.68-130.77-36.05-82.07-56.66c29.92-12.67,69.38-20.59,129.33-22.34"/>
</svg>
