<?xml version="1.0" encoding="utf-8"?>
<!-- Generator: Adobe Illustrator 23.0.3, SVG Export Plug-In . SVG Version: 6.00 Build 0)  -->
<svg version="1.1" id="clip" xmlns="http://www.w3.org/2000/svg" xmlns:xlink="http://www.w3.org/1999/xlink" x="0px" y="0px"
	 viewBox="0 0 500 500" style="enable-background:new 0 0 500 500;" xml:space="preserve">
<style type="text/css">
	.st0{fill:none;stroke:#040000;stroke-width:20;stroke-linecap:round;stroke-miterlimit:10;}
</style>
<path class="st0" d="M318.93,462.63c-18.76-3.8-36.31-12.74-50.48-26.91L148.48,315.76"/>
<path class="st0" d="M124.27,40.95c21-6.88,43.13-7.63,63.48-2.12c16.31,4.42,31.48,12.85,44.01,25.38l204.11,204.11
	c41.22,41.22,38.17,111.11-6.83,156.1l-4.48,4.48c-9.98,9.98-21.18,17.89-33.02,23.72"/>
<path class="st0" d="M71.17,75.51"/>
<path class="st0" d="M198.52,88.98l199.46,199.46c29.56,29.56,29.08,77.98-1.08,108.14l-2.14,2.14
	c-30.16,30.16-78.58,30.65-108.14,1.08L75.56,188.76C46,159.2,46.49,110.78,76.65,80.62"/>
</svg>
