<?xml version="1.0" encoding="utf-8"?>
<!-- Generator: Adobe Illustrator 23.0.3, SVG Export Plug-In . SVG Version: 6.00 Build 0)  -->
<svg version="1.1" id="password" xmlns="http://www.w3.org/2000/svg" xmlns:xlink="http://www.w3.org/1999/xlink" x="0px" y="0px"
	 viewBox="0 0 500 500" style="enable-background:new 0 0 500 500;" xml:space="preserve">
<style type="text/css">
	.st0{fill:none;stroke:#040000;stroke-width:20;stroke-linecap:round;stroke-miterlimit:10;}
</style>
<path class="st0" d="M76.99,307.72v-75.61c0-24.52,19.88-44.4,44.4-44.4h257.22c24.52,0,44.4,19.88,44.4,44.4v194.41
	c0,24.52-19.88,44.4-44.4,44.4H121.39c-24.52,0-44.4-19.88-44.4-44.4"/>
<path class="st0" d="M148.42,176.81v-46.16c0-56.1,45.48-101.58,101.58-101.58h0c56.1,0,101.58,45.48,101.58,101.58v46.16"/>
<path class="st0" d="M243.97,409.92c-14.34-1.91-27.55-10.56-34.71-24.38c-11.65-22.5-2.86-50.18,19.63-61.84
	c22.5-11.66,50.18-2.86,61.84,19.63c5.83,11.25,6.54,23.79,2.99,34.98"/>
<line class="st0" x1="250" y1="262.9" x2="250" y2="307.72"/>
</svg>
