<?xml version="1.0" encoding="utf-8"?>
<!-- Generator: Adobe Illustrator 23.0.3, SVG Export Plug-In . SVG Version: 6.00 Build 0)  -->
<svg version="1.1" id="trash" xmlns="http://www.w3.org/2000/svg" xmlns:xlink="http://www.w3.org/1999/xlink" x="0px" y="0px"
	 viewBox="0 0 500 500" style="enable-background:new 0 0 500 500;" xml:space="preserve">
<style type="text/css">
	.st0{fill:none;stroke:#040000;stroke-width:20;stroke-linecap:round;stroke-miterlimit:10;}
</style>
<path class="st0" d="M378.41,367.23l-13.74,63.05c-2.38,10.93-12.06,18.72-23.24,18.72h-177.1c-11.07,0-20.67-7.64-23.17-18.42
	l-63.8-275.43C73.91,140.24,85.23,126,100.53,126h300.94c15.18,0,26.47,14.02,23.24,28.85l-24.52,112.5"/>
<path class="st0" d="M76.74,83.47c4.22,0,353.34,0,353.34,0"/>
<path class="st0" d="M275.81,81.29h-51.62c-9.37,0-16.96-7.6-16.96-16.96v-6.26c0-9.37,7.6-16.96,16.96-16.96h51.62
	c9.37,0,16.96,7.6,16.96,16.96v6.26C292.77,73.69,285.18,81.29,275.81,81.29z"/>
</svg>
