<?xml version="1.0" encoding="utf-8"?>
<!-- Generator: Adobe Illustrator 23.0.3, SVG Export Plug-In . SVG Version: 6.00 Build 0)  -->
<svg version="1.1" id="star" xmlns="http://www.w3.org/2000/svg" xmlns:xlink="http://www.w3.org/1999/xlink" x="0px" y="0px"
	 viewBox="0 0 500 500" style="enable-background:new 0 0 500 500;" xml:space="preserve">
<style type="text/css">
	.st0{fill:none;stroke:#040000;stroke-width:20;stroke-linecap:round;stroke-miterlimit:10;}
</style>
<path class="st0" d="M295.58,148.59l11.03,33.95c1.93,5.94,7.46,9.95,13.7,9.95h138.87c13.95,0,19.76,17.86,8.47,26.06L355.3,300.18
	c-5.05,3.67-7.16,10.17-5.23,16.11l42.91,132.07c4.31,13.27-10.88,24.31-22.17,16.11l-112.34-81.62c-5.05-3.67-11.89-3.67-16.93,0
	l-112.34,81.62c-11.29,8.2-26.48-2.83-22.17-16.11l42.91-132.07c1.93-5.94-0.18-12.44-5.23-16.11L32.35,218.55
	c-11.29-8.2-5.49-26.06,8.47-26.06h138.87c6.24,0,11.77-4.02,13.7-9.95L236.3,50.47c4.31-13.27,23.09-13.27,27.4,0l10.72,32.99"/>
</svg>
