<?xml version="1.0" encoding="utf-8"?>
<!-- Generator: Adobe Illustrator 23.0.3, SVG Export Plug-In . SVG Version: 6.00 Build 0)  -->
<svg version="1.1" id="phone" xmlns="http://www.w3.org/2000/svg" xmlns:xlink="http://www.w3.org/1999/xlink" x="0px" y="0px"
	 viewBox="0 0 500 500" style="enable-background:new 0 0 500 500;" xml:space="preserve">
<style type="text/css">
	.st0{fill:none;stroke:#040000;stroke-width:20;stroke-linecap:round;stroke-miterlimit:10;}
</style>
<path class="st0" d="M397.96,250v186.19c0,14.81-12.01,26.81-26.81,26.81H128.86c-14.81,0-26.81-12.01-26.81-26.81V63.81
	c0-14.81,12.01-26.81,26.81-26.81h242.29c14.81,0,26.81,12.01,26.81,26.81V150"/>
<path class="st0" d="M138.4,245V108.8c0-13.7,11.1-24.8,24.8-24.8H336.8c13.7,0,24.8,11.1,24.8,24.8v245.12
	c0,13.7-11.1,24.8-24.8,24.8H163.2c-13.7,0-24.8-11.1-24.8-24.8V321"/>
<path class="st0" d="M216.5,421c7,0,67,0,67,0"/>
</svg>
