<?xml version="1.0" encoding="utf-8"?>
<!-- Generator: Adobe Illustrator 23.0.3, SVG Export Plug-In . SVG Version: 6.00 Build 0)  -->
<svg version="1.1" id="file" xmlns="http://www.w3.org/2000/svg" xmlns:xlink="http://www.w3.org/1999/xlink" x="0px" y="0px"
	 viewBox="0 0 500 500" style="enable-background:new 0 0 500 500;" xml:space="preserve">
<style type="text/css">
	.st0{fill:none;stroke:#040000;stroke-width:20;stroke-linecap:round;stroke-miterlimit:10;}
</style>
<path class="st0" d="M394.27,399.7v-0.02c49.84-0.98,89.95-41.69,89.95-91.76c0-50.69-41.09-91.79-91.79-91.79
	c-13.13,0-25.61,2.76-36.91,7.73C348,154.38,289.17,100.3,217.7,100.3c-24.57,0-47.64,6.39-67.65,17.6"/>
<path class="st0" d="M89.95,184.98c-7.02,16.59-10.9,34.82-10.9,53.97c0,7.37,0.58,14.61,1.69,21.67
	c-36.27,2.41-64.96,32.57-64.96,69.46c0,37.44,29.55,67.96,66.59,69.56v0.08h190.31"/>
<path class="st0" d="M196.1,212.31v107.01c0,5.83-7.04,8.74-11.16,4.62L154.8,293.8"/>
<path class="st0" d="M244.8,325.87V218.86c0-5.82,7.04-8.74,11.16-4.62l30.14,30.14"/>
</svg>
