<?xml version="1.0" encoding="utf-8"?>
<!-- Generator: Adobe Illustrator 23.0.3, SVG Export Plug-In . SVG Version: 6.00 Build 0)  -->
<svg version="1.1" id="down" xmlns="http://www.w3.org/2000/svg" xmlns:xlink="http://www.w3.org/1999/xlink" x="0px" y="0px"
	 viewBox="0 0 500 500" style="enable-background:new 0 0 500 500;" xml:space="preserve">
<style type="text/css">
	.st0{fill:none;stroke:#040000;stroke-width:20;stroke-linecap:round;stroke-miterlimit:10;}
</style>
<path class="st0" d="M71,374v47.22C71,432.7,80.3,442,91.78,442h318.45c11.48,0,20.78-9.3,20.78-20.78V374"/>
<path class="st0" d="M301.97,177.27V55.11c0-7.89-6.4-14.29-14.29-14.29h-78.93c-6.63,0-12,5.37-12,12v270.94h-45.28
	c-10.81,0-14.99,14.07-5.94,19.97l80.01,52.18c14.36,9.36,32.99,8.93,46.89-1.1l82.76-53.92c7.77-5.06,4.18-17.13-5.09-17.13
	l-47.55-0.32v-51.88"/>
</svg>
