<?xml version="1.0" encoding="utf-8"?>
<!-- Generator: Adobe Illustrator 23.0.3, SVG Export Plug-In . SVG Version: 6.00 Build 0)  -->
<svg version="1.1" id="heart" xmlns="http://www.w3.org/2000/svg" xmlns:xlink="http://www.w3.org/1999/xlink" x="0px" y="0px"
	 viewBox="0 0 500 500" style="enable-background:new 0 0 500 500;" xml:space="preserve">
<style type="text/css">
	.st0{fill:none;stroke:#040000;stroke-width:20;stroke-linecap:round;stroke-miterlimit:10;}
</style>
<path class="st0" d="M418.32,61.09c-15.47-11.63-34.73-18.91-56.65-19.47c-0.97-0.02-1.95-0.04-2.92-0.04
	c-51.32,0-94.66,34.12-108.6,80.9c-13.94-46.79-57.28-80.9-108.6-80.9c-0.98,0-1.95,0.01-2.92,0.04
	c-79.81,2.02-124.46,93.28-78.5,158.56l43.24,61.42l36.29,51.55l25.43,36.12l23.3,33.09l48.79,69.31c6.32,8.98,19.64,8.98,25.97,0
	l133.81-190.07l43.24-61.42c11.1-15.76,16.91-33.03,18.22-50.2"/>
</svg>
