<?xml version="1.0" encoding="utf-8"?>
<!-- Generator: Adobe Illustrator 23.0.3, SVG Export Plug-In . SVG Version: 6.00 Build 0)  -->
<svg version="1.1" id="video" xmlns="http://www.w3.org/2000/svg" xmlns:xlink="http://www.w3.org/1999/xlink" x="0px" y="0px"
	 viewBox="0 0 500 500" style="enable-background:new 0 0 500 500;" xml:space="preserve">
<style type="text/css">
	.st0{fill:none;stroke:#040000;stroke-width:20;stroke-linecap:round;stroke-miterlimit:10;}
</style>
<path class="st0" d="M176.5,84.17c11.93,15.6,16.3,36.57,9.91,56.71c-10.41,32.77-45.41,50.9-78.18,40.49
	c-32.77-10.41-50.9-45.41-40.49-78.18s45.41-50.9,78.18-40.49"/>
<path class="st0" d="M328.04,172.46c-15.6,11.93-36.57,16.3-56.71,9.91c-32.77-10.41-50.9-45.41-40.49-78.18s45.41-50.9,78.18-40.49
	s50.9,45.41,40.49,78.18"/>
<path class="st0" d="M250,440.24h82.77c29.53,0,53.47-23.94,53.47-53.47v-5.66l59.54,13.29c6.93,1.55,13.52-3.73,13.52-10.83V270.65
	c0-7.12-6.6-12.39-13.54-10.82l-59.51,13.45v-5.87c0-29.53-23.94-53.47-53.47-53.47H94.17c-29.53,0-53.47,23.94-53.47,53.47v119.36
	c0,29.53,23.94,53.47,53.47,53.47h57.04"/>
<line class="st0" x1="104.33" y1="279.8" x2="176.33" y2="279.8"/>
</svg>
