<?xml version="1.0" encoding="utf-8"?>
<!-- Generator: Adobe Illustrator 23.0.3, SVG Export Plug-In . SVG Version: 6.00 Build 0)  -->
<svg version="1.1" id="camera" xmlns="http://www.w3.org/2000/svg" xmlns:xlink="http://www.w3.org/1999/xlink" x="0px" y="0px"
	 viewBox="0 0 500 500" style="enable-background:new 0 0 500 500;" xml:space="preserve">
<style type="text/css">
	.st0{fill:none;stroke:#040000;stroke-width:20;stroke-linecap:round;stroke-miterlimit:10;}
</style>
<path class="st0" d="M346.06,176.41c23.18,30.31,31.69,71.08,19.26,110.21c-20.23,63.69-88.25,98.92-151.94,78.7
	s-98.92-88.25-78.7-151.94s88.25-98.92,151.94-78.7"/>
<path class="st0" d="M238.99,333.12c-26.21-3.49-50.35-19.3-63.43-44.56c-21.29-41.11-5.23-91.7,35.88-113s91.7-5.23,113,35.88
	c21.29,41.11,5.23,91.7-35.88,113"/>
<path class="st0" d="M269.39,420.18h194.93c13.95,0,25.26-11.31,25.26-25.26V105.08c0-13.95-11.31-25.26-25.26-25.26H329.11V54.64
	c0-9.87-8-17.87-17.87-17.87H188.76c-9.87,0-17.87,8-17.87,17.87v25.18H33.44c-13.95,0-25.26,11.31-25.26,25.26v289.84
	c0,13.95,11.31,25.26,25.26,25.26H98.6"/>
<line class="st0" x1="384.19" y1="128.97" x2="448.94" y2="128.97"/>
</svg>
