<?xml version="1.0" encoding="utf-8"?>
<!-- Generator: Adobe Illustrator 23.0.3, SVG Export Plug-In . SVG Version: 6.00 Build 0)  -->
<svg version="1.1" id="camera" xmlns="http://www.w3.org/2000/svg" xmlns:xlink="http://www.w3.org/1999/xlink" x="0px" y="0px"
	 viewBox="0 0 500 500" style="enable-background:new 0 0 500 500;" xml:space="preserve">
<style type="text/css">
	.st0{fill:none;stroke:#040000;stroke-width:20;stroke-linecap:round;stroke-miterlimit:10;}
</style>
<path class="st0" d="M429.4,263.63v167.25c0,22.3-18.08,40.38-40.38,40.38H111.45c-22.3,0-40.38-18.08-40.38-40.38V62.9
	c0-22.3,18.08-40.38,40.38-40.38h159.13c2.94,0,5.33,2.39,5.33,5.33v109.9c0,2.94,2.39,5.33,5.33,5.33h135.12
	c4.77,0,7.14-5.79,3.74-9.13l-86.14-84.63"/>
<line class="st0" x1="124.66" y1="109.5" x2="215.08" y2="109.5"/>
<line class="st0" x1="124.66" y1="159.5" x2="215.08" y2="159.5"/>
<line class="st0" x1="124.66" y1="229.5" x2="374.7" y2="229.5"/>
<line class="st0" x1="124.66" y1="289.5" x2="374.7" y2="289.5"/>
<line class="st0" x1="124.66" y1="349.5" x2="374.7" y2="349.5"/>
<line class="st0" x1="281.12" y1="409.5" x2="371.54" y2="409.5"/>
</svg>
